Coordinates
version=1
nRows=24
nColumns=24
inDegrees=yes

Units are S.I. units (second, meters, Newtons, ...)
Angles are in degrees.

endheader
time	pelvis_tilt	pelvis_list	pelvis_rotation	pelvis_tx	pelvis_ty	pelvis_tz	hip_flexion_r	hip_adduction_r	hip_rotation_r	knee_angle_r	ankle_angle_r	subtalar_angle_r	mtp_angle_r	hip_flexion_l	hip_adduction_l	hip_rotation_l	knee_angle_l	ankle_angle_l	subtalar_angle_l	mtp_angle_l	lumbar_extension	lumbar_bending	lumbar_rotation
      3.75000000	    -12.60150534	      8.47827553	     -2.18669849	     -0.70762273	     -0.03735020	     -0.25007624	     16.14340106	    -14.10564878	     -4.49676329	    -60.62797588	    -29.04949640	    -20.52348350	     12.58713493	     31.53334174	      8.71357818	     -3.23022856	    -24.28497370	     -0.52277072	    -14.57947531	    -11.52326306	      9.77798942	     -9.76473703	      3.30054470
      3.75500000	    -12.53854051	      8.28775917	     -2.18741938	     -0.70031990	     -0.03566209	     -0.25072767	     17.10323103	    -13.73219376	     -4.24517191	    -61.46341140	    -27.89019366	    -20.63806354	     12.87136574	     30.77254266	      8.61240561	     -3.16809514	    -23.94748644	     -0.14718063	    -14.38311120	    -11.27685934	      9.65949268	     -9.55664911	      3.15965690
      3.76000000	    -12.48415386	      8.11439364	     -2.19546055	     -0.69297810	     -0.03395931	     -0.25137405	     18.05522968	    -13.38372774	     -4.00846230	    -62.19247471	    -26.69232308	    -20.51705313	     13.42198527	     29.99567059	      8.52550386	     -3.09260747	    -23.55963019	      0.16804695	    -14.20445234	    -10.95705117	      9.56675110	     -9.36099199	      3.04005263
      3.76500000	    -12.40213743	      7.87508378	     -2.19465047	     -0.68569803	     -0.03221827	     -0.25206693	     18.94633712	    -12.97551770	     -3.83155500	    -62.80394515	    -25.53023314	    -20.22652706	     14.12083261	     29.19375996	      8.38276215	     -2.99343907	    -23.18178798	      0.51184636	    -14.03795623	    -10.68778880	      9.43059730	     -9.08952123	      2.89208773
      3.77000000	    -12.31816590	      7.70189377	     -2.25470887	     -0.67842490	     -0.03043969	     -0.25274672	     19.83271487	    -12.62489222	     -3.55417787	    -63.26346894	    -24.63347623	    -19.88077940	     16.52659676	     28.35044671	      8.30071206	     -2.88625402	    -22.68434857	      0.50860260	    -14.22035813	    -10.17501709	      9.31002730	     -8.86604791	      2.83464608
      3.77500000	    -12.22500362	      7.33818966	     -2.17231677	     -0.67124304	     -0.02865318	     -0.25345638	     20.62871408	    -12.10088467	     -3.54804163	    -63.64490068	    -23.63648026	    -19.46341106	     17.08508374	     27.54392867	      8.05628820	     -2.68481308	    -22.33542563	      0.92731968	    -13.90057987	    -10.01402203	      9.13300146	     -8.48086398	      2.52602113
      3.78000000	    -12.11478002	      7.11553202	     -2.12383340	     -0.66399150	     -0.02690265	     -0.25428139	     21.39117843	    -11.75491005	     -3.43878418	    -63.85493253	    -22.99178370	    -19.05433118	     20.52963429	     26.66634193	      7.97890702	     -2.41459159	    -21.85521364	      1.11846571	    -13.91980847	     -9.96837889	      8.96955345	     -8.22293929	      2.35270930
      3.78500000	    -12.01965203	      6.82975838	     -2.06472673	     -0.65680526	     -0.02519536	     -0.25496375	     22.17078168	    -11.32637106	     -3.43386581	    -64.08997691	    -21.87616344	    -18.35015266	     21.04337671	     25.83000678	      7.80644875	     -2.22966942	    -21.42206384	      1.39865567	    -13.76860871	     -9.93227368	      8.81099708	     -7.91312882	      2.13925555
      3.79000000	    -11.89447022	      6.57219229	     -1.96467356	     -0.64962661	     -0.02348285	     -0.25583445	     22.86747604	    -10.96649603	     -3.44237268	    -64.14660564	    -21.13402078	    -17.78709442	     23.54757332	     24.93527924	      7.71407107	     -1.89922345	    -20.93603260	      1.65230547	    -13.79236327	    -10.38650160	      8.61554775	     -7.62301449	      1.90562473
      3.79500000	    -11.79165210	      6.30332739	     -1.86045791	     -0.64248786	     -0.02187514	     -0.25656712	     23.59044141	    -10.58079204	     -3.50330106	    -64.21600732	    -20.04942679	    -17.01734035	     24.08885836	     24.07891514	      7.57438826	     -1.65093210	    -20.46427606	      1.88822491	    -13.68778668	    -10.40751944	      8.44224402	     -7.33313701	      1.65607705
      3.80000000	    -11.68860681	      6.00459919	     -1.68671395	     -0.63533446	     -0.02029917	     -0.25740055	     24.25208832	    -10.20254747	     -3.67301218	    -64.16879900	    -18.99336875	    -16.28762035	     24.70178458	     23.22350894	      7.42748057	     -1.38549605	    -19.98652208	      2.09179423	    -13.61209332	    -10.45263129	      8.26783799	     -7.02230982	      1.35444641
      3.80500000	    -11.57481612	      5.72181347	     -1.50376685	     -0.62824674	     -0.01877695	     -0.25822750	     24.88659069	     -9.84259506	     -3.83840380	    -64.04366981	    -17.97310814	    -15.56512222	     25.41844578	     22.35506278	      7.29262929	     -1.10235895	    -19.49230546	      2.27358251	    -13.54075662	    -10.52638820	      8.07005945	     -6.72869031	      1.03316086
      3.81000000	    -11.44188859	      5.44728331	     -1.30883264	     -0.62116243	     -0.01728731	     -0.25916633	     25.44782068	     -9.50963377	     -3.99445340	    -63.70638074	    -17.45928694	    -15.24936532	     28.62680269	     21.45051196	      7.18484107	     -0.73432831	    -18.98149324	      2.57531623	    -13.50527306	    -11.25155336	      7.85214765	     -6.43330393	      0.72549871
      3.81500000	    -11.36706697	      5.16894063	     -1.09152975	     -0.61414105	     -0.01597381	     -0.25999634	     26.08556447	     -9.17104877	     -4.21896935	    -63.44017592	    -16.47401960	    -14.63198467	     28.99441739	     20.64177456	      7.03194857	     -0.53348787	    -18.49778705	      2.80550143	    -13.30757598	    -11.23408388	      7.69010738	     -6.14744798	      0.40150213
      3.82000000	    -11.27699428	      4.89061926	     -0.85594698	     -0.60713657	     -0.01469785	     -0.26082606	     26.67466711	     -8.83923721	     -4.45771743	    -63.08084225	    -15.55506685	    -14.07622593	     29.41582272	     19.81080234	      6.87939760	     -0.29341495	    -17.99562092	      2.98764506	    -13.15070586	    -11.23150588	      7.50662873	     -5.86520428	      0.04393709
      3.82500000	    -11.18622740	      4.61938996	     -0.61109833	     -0.60013716	     -0.01351116	     -0.26166824	     27.24069311	     -8.52703633	     -4.71181177	    -62.64386061	    -14.70210908	    -13.58215001	     29.87122060	     18.97941124	      6.72844765	     -0.05712441	    -17.48769739	      3.17836854	    -12.99056037	    -11.22257077	      7.32516103	     -5.59292115	     -0.30864204
      3.83000000	    -11.08314444	      4.37545370	     -0.34657091	     -0.59312817	     -0.01241906	     -0.26255498	     27.76841420	     -8.26960733	     -4.99611188	    -62.13249618	    -13.90553395	    -13.16599469	     30.40901735	     18.13542712	      6.60619883	      0.17142833	    -16.97525118	      3.37714482	    -12.82705742	    -11.21222430	      7.13239790	     -5.34559673	     -0.63211849
      3.83500000	    -10.90635715	      4.14496072	     -0.15221584	     -0.58614426	     -0.01128508	     -0.26335153	     28.20083683	     -7.98463463	     -5.18175467	    -61.49661191	    -13.35236714	    -12.91621241	     31.70410944	     17.18704541	      6.47616468	      0.40116450	    -16.40817992	      3.49742563	    -12.78571569	    -11.30303486	      6.86062245	     -5.09672544	     -0.92073575
      3.84000000	    -10.94712147	      3.88995897	      0.13904893	     -0.57921187	     -0.01052906	     -0.26417296	     28.86288733	     -7.71914959	     -5.47566473	    -60.87222438	    -12.74321973	    -12.64120752	     31.98442664	     16.54862251	      6.31312125	      0.57637151	    -15.97031520	      3.75151022	    -12.48475655	    -11.23423668	      6.81439022	     -4.84649590	     -1.30043228
      3.84500000	    -10.88993081	      3.67363158	      0.39673030	     -0.57225514	     -0.00976524	     -0.26496805	     29.39815165	     -7.49405125	     -5.73934345	    -60.17580055	    -12.15786700	    -12.37734656	     32.29691266	     15.78417180	      6.18325540	      0.74461280	    -15.49213299	      3.95974775	    -12.28400510	    -11.18514121	      6.66690168	     -4.62490316	     -1.61890882
      3.85000000	    -10.89622641	      3.45649528	      0.59212441	     -0.56531046	     -0.00915351	     -0.26568607	     30.00810871	     -7.23303071	     -5.93255981	    -59.42570618	    -11.70605345	    -12.18004430	     32.47183153	     15.09059089	      6.03122128	      0.88413487	    -15.01215478	      4.15604385	    -12.14523768	    -11.14310394	      6.59663234	     -4.38762176	     -1.85804258
      3.85500000	    -10.81426304	      3.28156741	      0.87418636	     -0.55838716	     -0.00852092	     -0.26644709	     30.47472165	     -7.07632048	     -6.19439192	    -58.60652680	    -11.23406155	    -11.92670818	     32.71724398	     14.31477843	      5.93144028	      1.03047929	    -14.54938863	      4.33764226	    -11.89427585	    -11.07981821	      6.41399291	     -4.21786406	     -2.23810018
      3.86000000	    -10.82525088	      3.10341035	      1.05958823	     -0.55147143	     -0.00811703	     -0.26710830	     31.05607935	     -6.86670188	     -6.37228268	    -57.74227652	    -10.86468459	    -11.77213749	     32.84413884	     13.64533109	      5.80514660	      1.12007421	    -14.09343145	      4.53277678	    -11.76245900	    -11.02846614	      6.34692829	     -4.02080994	     -2.45640328
      3.86500000	    -10.80086627	      2.94373686	      1.29330248	     -0.54455916	     -0.00775133	     -0.26779952	     31.56220526	     -6.71458882	     -6.58721319	    -56.81488079	    -10.50992861	    -11.57026983	     32.96112686	     12.94987697	      5.69964743	      1.20747365	    -13.65834570	      4.74008088	    -11.55018578	    -10.95243221	      6.23370621	     -3.85033340	     -2.75759021
